<svg width="100%" viewBox="0 0 400 400" xmlns="http://www.w3.org/2000/svg">
  <defs>
    <radialGradient id="ibg" cx="50%" cy="50%" r="50%">
      <stop offset="0%" stop-color="#1a0400"/>
      <stop offset="100%" stop-color="#080001"/>
    </radialGradient>
    <path id="topArc" d="M 31,200 A 169,169 0 0,1 369,200"/>
  <mask id="imagine-text-gaps-z1ad97" maskUnits="userSpaceOnUse"><rect x="0" y="0" width="400" height="400" fill="white"/><rect x="30.19705581665039" y="21.115087509155273" width="339.60589599609375" height="123.02095794677734" fill="black" rx="2"/><rect x="121.40692138671875" y="227.08511352539062" width="33.18617057800293" height="19.88652515411377" fill="black" rx="2"/><rect x="99.50177764892578" y="292.38299560546875" width="200.9964599609375" height="21.021276473999023" fill="black" rx="2"/><rect x="175.29965209960938" y="325.2198791503906" width="49.40071105957031" height="18.751773834228516" fill="black" rx="2"/></mask></defs>

  <circle cx="200" cy="200" r="190" fill="url(#ibg)"/>
  <circle cx="200" cy="200" r="183" fill="none" stroke="#cc2200" stroke-width="1.8" stroke-opacity="0.8"/>
  <circle cx="200" cy="200" r="175" fill="none" stroke="#551100" stroke-width="0.6" stroke-opacity="0.3" stroke-dasharray="3 8"/>

  <!-- Motto top arc -->
  <text font-family="'Courier New',monospace" font-size="9.5" letter-spacing="1.5" fill="#884422" opacity="0.9">
    <textPath href="#topArc" startOffset="50%" text-anchor="middle">Dissolving the AT-Field between human, code and knowledge</textPath>
  </text>

  <!-- Cardinal ticks -->
  <rect x="191" y="15" width="18" height="8" rx="2" fill="#ff5500" opacity="0.85"/>
  <rect x="191" y="377" width="18" height="8" rx="2" fill="#ff5500" opacity="0.85"/>
  <rect x="15" y="191" width="8" height="18" rx="2" fill="#ff5500" opacity="0.85"/>
  <rect x="377" y="191" width="8" height="18" rx="2" fill="#ff5500" opacity="0.85"/>

  <!-- Diagonal spokes from 200,200 -->
  <g stroke="#ff4400" stroke-width="0.7" stroke-opacity="0.12">
    <line x1="200" y1="200" x2="68" y2="68" mask="url(#imagine-text-gaps-z1ad97)"/>
    <line x1="200" y1="200" x2="332" y2="68" mask="url(#imagine-text-gaps-z1ad97)"/>
    <line x1="200" y1="200" x2="68" y2="332" mask="url(#imagine-text-gaps-z1ad97)"/>
    <line x1="200" y1="200" x2="332" y2="332" mask="url(#imagine-text-gaps-z1ad97)"/>
  </g>

  <!-- AT Field diamonds centered at 200,200 -->
  <polygon points="200,118 282,200 200,282 118,200" fill="none" stroke="#ff1100" stroke-width="0.6" stroke-opacity="0.13" stroke-dasharray="4 8"/>
  <polygon points="200,135 265,200 200,265 135,200" fill="none" stroke="#ff2200" stroke-width="0.8" stroke-opacity="0.22" stroke-dasharray="3 6"/>
  <polygon points="200,150 250,200 200,250 150,200" fill="none" stroke="#ff4400" stroke-width="1.0" stroke-opacity="0.38" stroke-dasharray="2 5"/>
  <polygon points="200,163 237,200 200,237 163,200" fill="none" stroke="#ff6600" stroke-width="1.4" stroke-opacity="0.62"/>
  <polygon points="200,176 224,200 200,224 176,200" fill="#1e0004" stroke="#ff8800" stroke-width="2.4"/>

  <!-- Triangle connectors: top(200,128) BL(138,236) BR(262,236) -->
  <line x1="200" y1="150" x2="150" y2="225" stroke="#ff3300" stroke-width="1.4" stroke-opacity="0.45"/>
  <line x1="200" y1="150" x2="250" y2="225" stroke="#ff3300" stroke-width="1.4" stroke-opacity="0.45"/>
  <line x1="160" y1="236" x2="240" y2="236" stroke="#ff3300" stroke-width="1.4" stroke-opacity="0.45"/>

  <!-- Lines from nodes to center 200,200 -->
  <line x1="200" y1="150" x2="200" y2="176" stroke="#ff5500" stroke-width="0.9" stroke-opacity="0.3"/>
  <line x1="152" y1="234" x2="178" y2="204" stroke="#ff5500" stroke-width="0.9" stroke-opacity="0.3" mask="url(#imagine-text-gaps-z1ad97)"/>
  <line x1="248" y1="234" x2="222" y2="204" stroke="#ff5500" stroke-width="0.9" stroke-opacity="0.3"/>

  <!-- TOP NODE — Human (200,128) r=21 -->
  <circle cx="200" cy="128" r="21" fill="#1c0003" stroke="#ff5500" stroke-width="2.5"/>
  <circle cx="200" cy="120" r="7" fill="#ff6600"/>
  <path d="M189,139 Q200,132 211,139 L209,147 L191,147 Z" fill="#ff4400"/>

  <!-- BL NODE — Code (138,236) r=21 -->
  <circle cx="138" cy="236" r="21" fill="#1c0003" stroke="#cc3300" stroke-width="2.5"/>
  <text x="138" y="241" text-anchor="middle" font-family="'Courier New',monospace" font-size="14" font-weight="700" fill="#ff5500">&lt;/&gt;</text>

  <!-- BR NODE — Knowledge (262,236) r=21 -->
  <circle cx="262" cy="236" r="21" fill="#1c0003" stroke="#cc3300" stroke-width="2.5"/>
  <path d="M250,228 L250,244 L262,242 L274,244 L274,228 L262,230 Z" fill="none" stroke="#ff5500" stroke-width="1.8"/>
  <line x1="262" y1="230" x2="262" y2="242" stroke="#ff5500" stroke-width="1.2"/>

  <!-- Central merge node at 200,200 -->
  <circle cx="200" cy="200" r="11" fill="#220005" stroke="#ff7700" stroke-width="2.2"/>
  <circle cx="200" cy="200" r="6.5" fill="#ff5500"/>
  <circle cx="199" cy="199" r="2.5" fill="#ffaa66" opacity="0.9"/>

  <!-- INSTRUMENTALITY inside circle bottom -->
  <text x="200" y="308" text-anchor="middle" font-family="Georgia,'Times New Roman',serif" font-size="15" font-weight="700" letter-spacing="3" fill="#ff6600">INSTRUMENTALITY</text>

  <!-- Diamond divider -->
  <line x1="118" y1="318" x2="188" y2="318" stroke="#cc2200" stroke-width="0.9" stroke-opacity="0.65"/>
  <polygon points="200,313 207,318 200,323 193,318" fill="#ff4400"/>
  <line x1="212" y1="318" x2="282" y2="318" stroke="#cc2200" stroke-width="0.9" stroke-opacity="0.65"/>

  <!-- MCP -->
  <text x="200" y="338" text-anchor="middle" font-family="'Courier New',monospace" font-size="13" font-weight="700" letter-spacing="6" fill="#cc4400">MCP</text>

</svg>
